<mxfile host="app.diagrams.net" modified="2023-09-11T12:09:37.063Z" agent="Mozilla/5.0 (Macintosh; Intel Mac OS X 10_15_7) AppleWebKit/537.36 (KHTML, like Gecko) Chrome/116.0.0.0 Safari/537.36" etag="91nG4gikugO--IHVTwEs" version="21.7.4" type="device">
  <diagram name="Page-1" id="4EG7En-ihIAkV2iXwSTO">
    <mxGraphModel dx="954" dy="642" grid="1" gridSize="10" guides="1" tooltips="1" connect="1" arrows="1" fold="1" page="1" pageScale="1" pageWidth="850" pageHeight="1100" math="0" shadow="0">
      <root>
        <mxCell id="0" />
        <mxCell id="1" parent="0" />
        <mxCell id="SF3OYFIrmYt8XyJCRQr3-20" value="" style="image;html=1;image=img/lib/clip_art/computers/Laptop_128x128.png" vertex="1" parent="1">
          <mxGeometry x="20" y="160" width="80" height="80" as="geometry" />
        </mxCell>
        <mxCell id="SF3OYFIrmYt8XyJCRQr3-21" value="" style="image;sketch=0;aspect=fixed;html=1;points=[];align=center;fontSize=12;image=img/lib/mscae/Docker.svg;" vertex="1" parent="1">
          <mxGeometry x="160" y="160" width="36.59" height="30" as="geometry" />
        </mxCell>
        <mxCell id="SF3OYFIrmYt8XyJCRQr3-24" value="" style="shape=flexArrow;endArrow=classic;html=1;rounded=0;" edge="1" parent="1">
          <mxGeometry width="50" height="50" relative="1" as="geometry">
            <mxPoint x="100" y="200" as="sourcePoint" />
            <mxPoint x="270" y="200" as="targetPoint" />
          </mxGeometry>
        </mxCell>
        <mxCell id="SF3OYFIrmYt8XyJCRQr3-26" value="" style="outlineConnect=0;dashed=0;verticalLabelPosition=bottom;verticalAlign=top;align=center;html=1;shape=mxgraph.aws3.ecr_registry;fillColor=#F58534;gradientColor=none;" vertex="1" parent="1">
          <mxGeometry x="310" y="170" width="57" height="60" as="geometry" />
        </mxCell>
        <mxCell id="SF3OYFIrmYt8XyJCRQr3-29" value="ECR" style="text;html=1;align=center;verticalAlign=middle;resizable=0;points=[];autosize=1;strokeColor=none;fillColor=none;" vertex="1" parent="1">
          <mxGeometry x="310" y="240" width="50" height="30" as="geometry" />
        </mxCell>
        <mxCell id="SF3OYFIrmYt8XyJCRQr3-30" value="push docker images to ECR" style="text;html=1;align=center;verticalAlign=middle;resizable=0;points=[];autosize=1;strokeColor=none;fillColor=none;" vertex="1" parent="1">
          <mxGeometry x="93.30000000000001" y="220" width="170" height="30" as="geometry" />
        </mxCell>
        <mxCell id="SF3OYFIrmYt8XyJCRQr3-31" value="" style="shape=flexArrow;endArrow=classic;html=1;rounded=0;" edge="1" parent="1">
          <mxGeometry width="50" height="50" relative="1" as="geometry">
            <mxPoint x="367" y="199.5" as="sourcePoint" />
            <mxPoint x="490" y="200" as="targetPoint" />
          </mxGeometry>
        </mxCell>
        <mxCell id="SF3OYFIrmYt8XyJCRQr3-32" value="" style="outlineConnect=0;dashed=0;verticalLabelPosition=bottom;verticalAlign=top;align=center;html=1;shape=mxgraph.aws3.elastic_beanstalk;fillColor=#F58534;gradientColor=none;" vertex="1" parent="1">
          <mxGeometry x="506.25" y="170" width="67.5" height="93" as="geometry" />
        </mxCell>
        <mxCell id="SF3OYFIrmYt8XyJCRQr3-33" value="deploy" style="text;html=1;align=center;verticalAlign=middle;resizable=0;points=[];autosize=1;strokeColor=none;fillColor=none;" vertex="1" parent="1">
          <mxGeometry x="380" y="158" width="60" height="30" as="geometry" />
        </mxCell>
        <mxCell id="SF3OYFIrmYt8XyJCRQr3-35" value="" style="outlineConnect=0;dashed=0;verticalLabelPosition=bottom;verticalAlign=top;align=center;html=1;shape=mxgraph.aws3.classic_load_balancer;fillColor=#F58534;gradientColor=none;" vertex="1" parent="1">
          <mxGeometry x="515" y="60" width="50" height="50" as="geometry" />
        </mxCell>
        <mxCell id="SF3OYFIrmYt8XyJCRQr3-36" value="" style="endArrow=none;dashed=1;html=1;rounded=0;" edge="1" parent="1">
          <mxGeometry width="50" height="50" relative="1" as="geometry">
            <mxPoint x="480" y="440" as="sourcePoint" />
            <mxPoint x="480" y="40" as="targetPoint" />
          </mxGeometry>
        </mxCell>
        <mxCell id="SF3OYFIrmYt8XyJCRQr3-37" value="" style="endArrow=none;dashed=1;html=1;rounded=0;" edge="1" parent="1">
          <mxGeometry width="50" height="50" relative="1" as="geometry">
            <mxPoint x="650" y="438" as="sourcePoint" />
            <mxPoint x="650" y="38" as="targetPoint" />
          </mxGeometry>
        </mxCell>
        <mxCell id="SF3OYFIrmYt8XyJCRQr3-38" value="" style="endArrow=none;dashed=1;html=1;rounded=0;" edge="1" parent="1">
          <mxGeometry width="50" height="50" relative="1" as="geometry">
            <mxPoint x="650" y="40" as="sourcePoint" />
            <mxPoint x="480" y="40" as="targetPoint" />
          </mxGeometry>
        </mxCell>
        <mxCell id="SF3OYFIrmYt8XyJCRQr3-39" value="" style="endArrow=classic;html=1;rounded=0;exitX=0.5;exitY=1;exitDx=0;exitDy=0;exitPerimeter=0;" edge="1" parent="1" source="SF3OYFIrmYt8XyJCRQr3-35">
          <mxGeometry width="50" height="50" relative="1" as="geometry">
            <mxPoint x="420" y="350" as="sourcePoint" />
            <mxPoint x="540" y="160" as="targetPoint" />
          </mxGeometry>
        </mxCell>
        <mxCell id="SF3OYFIrmYt8XyJCRQr3-40" value="" style="endArrow=classic;html=1;rounded=0;exitX=0.5;exitY=1;exitDx=0;exitDy=0;exitPerimeter=0;" edge="1" parent="1">
          <mxGeometry width="50" height="50" relative="1" as="geometry">
            <mxPoint x="539.5" y="270" as="sourcePoint" />
            <mxPoint x="539.5" y="320" as="targetPoint" />
          </mxGeometry>
        </mxCell>
        <mxCell id="SF3OYFIrmYt8XyJCRQr3-41" value="" style="outlineConnect=0;dashed=0;verticalLabelPosition=bottom;verticalAlign=top;align=center;html=1;shape=mxgraph.aws3.ec2;fillColor=#F58534;gradientColor=none;" vertex="1" parent="1">
          <mxGeometry x="515" y="330" width="55" height="70" as="geometry" />
        </mxCell>
        <mxCell id="SF3OYFIrmYt8XyJCRQr3-42" value="" style="endArrow=none;dashed=1;html=1;rounded=0;" edge="1" parent="1">
          <mxGeometry width="50" height="50" relative="1" as="geometry">
            <mxPoint x="650" y="440" as="sourcePoint" />
            <mxPoint x="482.5" y="440" as="targetPoint" />
          </mxGeometry>
        </mxCell>
        <mxCell id="SF3OYFIrmYt8XyJCRQr3-44" value="VPC/Public Subnet" style="text;html=1;align=center;verticalAlign=middle;resizable=0;points=[];autosize=1;strokeColor=none;fillColor=none;" vertex="1" parent="1">
          <mxGeometry x="466.06" y="440" width="130" height="30" as="geometry" />
        </mxCell>
        <mxCell id="SF3OYFIrmYt8XyJCRQr3-45" value="" style="image;aspect=fixed;html=1;points=[];align=center;fontSize=12;image=img/lib/azure2/networking/Network_Security_Groups.svg;" vertex="1" parent="1">
          <mxGeometry x="590" y="451" width="32.12" height="39" as="geometry" />
        </mxCell>
        <mxCell id="SF3OYFIrmYt8XyJCRQr3-46" value="security groups" style="text;html=1;align=center;verticalAlign=middle;resizable=0;points=[];autosize=1;strokeColor=none;fillColor=none;" vertex="1" parent="1">
          <mxGeometry x="556.06" y="490" width="100" height="30" as="geometry" />
        </mxCell>
        <mxCell id="SF3OYFIrmYt8XyJCRQr3-47" value="" style="endArrow=none;html=1;rounded=0;" edge="1" parent="1">
          <mxGeometry width="50" height="50" relative="1" as="geometry">
            <mxPoint x="280" y="560" as="sourcePoint" />
            <mxPoint x="280" as="targetPoint" />
          </mxGeometry>
        </mxCell>
        <mxCell id="SF3OYFIrmYt8XyJCRQr3-48" value="" style="endArrow=none;html=1;rounded=0;" edge="1" parent="1">
          <mxGeometry width="50" height="50" relative="1" as="geometry">
            <mxPoint x="720" y="560" as="sourcePoint" />
            <mxPoint x="720" as="targetPoint" />
          </mxGeometry>
        </mxCell>
        <mxCell id="SF3OYFIrmYt8XyJCRQr3-49" value="" style="endArrow=none;html=1;rounded=0;" edge="1" parent="1">
          <mxGeometry width="50" height="50" relative="1" as="geometry">
            <mxPoint x="720" as="sourcePoint" />
            <mxPoint x="280" as="targetPoint" />
          </mxGeometry>
        </mxCell>
        <mxCell id="SF3OYFIrmYt8XyJCRQr3-50" value="" style="endArrow=none;html=1;rounded=0;" edge="1" parent="1">
          <mxGeometry width="50" height="50" relative="1" as="geometry">
            <mxPoint x="720" y="560" as="sourcePoint" />
            <mxPoint x="280" y="560" as="targetPoint" />
          </mxGeometry>
        </mxCell>
        <mxCell id="SF3OYFIrmYt8XyJCRQr3-51" value="AWS Cloud&amp;nbsp;" style="text;html=1;align=center;verticalAlign=middle;resizable=0;points=[];autosize=1;strokeColor=none;fillColor=none;" vertex="1" parent="1">
          <mxGeometry x="277" y="8" width="90" height="30" as="geometry" />
        </mxCell>
        <mxCell id="SF3OYFIrmYt8XyJCRQr3-52" value="EC2" style="text;html=1;align=center;verticalAlign=middle;resizable=0;points=[];autosize=1;strokeColor=none;fillColor=none;" vertex="1" parent="1">
          <mxGeometry x="581.06" y="380" width="50" height="30" as="geometry" />
        </mxCell>
        <mxCell id="SF3OYFIrmYt8XyJCRQr3-53" value="Beanstalk" style="text;html=1;align=center;verticalAlign=middle;resizable=0;points=[];autosize=1;strokeColor=none;fillColor=none;" vertex="1" parent="1">
          <mxGeometry x="556.06" y="240" width="80" height="30" as="geometry" />
        </mxCell>
        <mxCell id="SF3OYFIrmYt8XyJCRQr3-54" value="Load Balancer" style="text;html=1;align=center;verticalAlign=middle;resizable=0;points=[];autosize=1;strokeColor=none;fillColor=none;" vertex="1" parent="1">
          <mxGeometry x="546.06" y="110" width="100" height="30" as="geometry" />
        </mxCell>
        <mxCell id="SF3OYFIrmYt8XyJCRQr3-55" value="" style="image;html=1;image=img/lib/clip_art/networking/Cloud_128x128.png" vertex="1" parent="1">
          <mxGeometry x="750" y="8" width="80" height="80" as="geometry" />
        </mxCell>
        <mxCell id="SF3OYFIrmYt8XyJCRQr3-56" value="Internet" style="text;html=1;align=center;verticalAlign=middle;resizable=0;points=[];autosize=1;strokeColor=none;fillColor=none;" vertex="1" parent="1">
          <mxGeometry x="760" y="80" width="60" height="30" as="geometry" />
        </mxCell>
        <mxCell id="SF3OYFIrmYt8XyJCRQr3-57" value="" style="shape=flexArrow;endArrow=classic;html=1;rounded=0;" edge="1" parent="1">
          <mxGeometry width="50" height="50" relative="1" as="geometry">
            <mxPoint x="740" y="60" as="sourcePoint" />
            <mxPoint x="580" y="80" as="targetPoint" />
          </mxGeometry>
        </mxCell>
      </root>
    </mxGraphModel>
  </diagram>
</mxfile>
